inDegrees=yes
name=ik_l_comf_01-000_orientations
DataType=double
version=3
OpenSimVersion=4.5.1-2024-10-23-33f3f5902
endheader
time	pelvis_tilt	pelvis_list	pelvis_rotation	pelvis_tx	pelvis_ty	pelvis_tz	hip_flexion_r	hip_adduction_r	hip_rotation_r	knee_angle_r	ankle_angle_r	subtalar_angle_r	mtp_angle_r	hip_flexion_l	hip_adduction_l	hip_rotation_l	knee_angle_l	ankle_angle_l	subtalar_angle_l	mtp_angle_l	lumbar_extension	lumbar_bending	lumbar_rotation
0	0.01068669390326228	0.02227099665722097	-23.8604585223402	0	0.95	0	-0.00247198488240275	-0.03048687110098423	0.002135644701990358	-0.007002076054592501	0.02117478415987187	0.008410610568575982	0	0.002375731643235115	0.02905620892918622	0.002304254953310731	0.005173967979601628	-0.02002546339977476	-0.0088756853696829	0	0	0	0
0.025	0.1420605864218891	0.1168697208777443	-23.89205323097089	0	0.95	0	0.07214083262762791	-0.2419351688763855	0.1610492605076858	-0.2643792819274658	0.1078648902039214	0.3187753232449059	0	-0.1647218090057443	0.1422293467617664	-0.6820281123974768	0.01164676605859697	0.1173102673695643	0.303094359792636	0	0	0	0
0.05	0.1420605864218891	0.1168697208777443	-23.89205323097089	0	0.95	0	0.07214083262762791	-0.2419351688763855	0.1610492605076858	-0.2643792819274658	0.1078648902039214	0.3187753232449059	0	-0.1647218090057443	0.1422293467617664	-0.6820281123974768	0.01164676605859697	0.1173102673695643	0.303094359792636	0	0	0	0
0.07500000000000001	0.1322986490885017	0.1201732180342828	-23.88929863760237	0	0.95	0	0.06633588355747383	-0.2445139197759301	0.1626747009690541	-0.268446881042728	0.1096859306392073	0.3159168223854317	0	-0.167505976939765	0.1432673537173976	-0.6874535109512012	0.00851513840238282	0.1174678435804044	0.3018689695747808	0	0	0	0
0.1	0.1322986490885017	0.1201732180342828	-23.88929863760237	0	0.95	0	0.06633588355747383	-0.2445139197759301	0.1626747009690541	-0.268446881042728	0.1096859306392073	0.3159168223854317	0	-0.167505976939765	0.1432673537173976	-0.6874535109512012	0.00851513840238282	0.1174678435804044	0.3018689695747808	0	0	0	0
0.125	0.1322986490885017	0.1201732180342828	-23.88929863760237	0	0.95	0	0.06633588355747383	-0.2445139197759301	0.1626747009690541	-0.268446881042728	0.1096859306392073	0.3159168223854317	0	-0.167505976939765	0.1432673537173976	-0.6874535109512012	0.00851513840238282	0.1174678435804044	0.3018689695747808	0	0	0	0
0.15	0.1322986490885017	0.1201732180342828	-23.88929863760237	0	0.95	0	0.06633588355747383	-0.2445139197759301	0.1626747009690541	-0.268446881042728	0.1096859306392073	0.3159168223854317	0	-0.167505976939765	0.1432673537173976	-0.6874535109512012	0.00851513840238282	0.1174678435804044	0.3018689695747808	0	0	0	0
0.175	0.1241278032709183	0.1223167223422627	-23.88833511331276	0	0.95	0	0.06149648984559449	-0.2495251532968509	0.1659928842132732	-0.2698500775410677	0.1126738506974501	0.3113550989214787	0	-0.1685351852900994	0.1425369962953394	-0.689038505892381	0.007346171131809764	0.1188493845451529	0.3023586379724252	0	0	0	0
0.2	0.1241278032709183	0.1223167223422627	-23.88833511331276	0	0.95	0	0.06149648984559449	-0.2495251532968509	0.1659928842132732	-0.2698500775410677	0.1126738506974501	0.3113550989214787	0	-0.1685351852900994	0.1425369962953394	-0.689038505892381	0.007346171131809764	0.1188493845451529	0.3023586379724252	0	0	0	0
0.225	0.1241278032709183	0.1223167223422627	-23.88833511331276	0	0.95	0	0.06149648984559449	-0.2495251532968509	0.1659928842132732	-0.2698500775410677	0.1126738506974501	0.3113550989214787	0	-0.1685351852900994	0.1425369962953394	-0.689038505892381	0.007346171131809764	0.1188493845451529	0.3023586379724252	0	0	0	0
0.25	0.1162487579175163	0.1233774651739993	-23.89007308464704	0	0.95	0	0.0576497100512124	-0.2570974244252866	0.1700155152608069	-0.2697449397191398	0.115888308529771	0.3067100219723005	0	-0.169156101775574	0.1410571238740213	-0.6866130087278014	0.006687408343165319	0.1210747470110113	0.3031287973444013	0	0	0	0
0.275	0.1162487579175163	0.1233774651739993	-23.89007308464704	0	0.95	0	0.0576497100512124	-0.2570974244252866	0.1700155152608069	-0.2697449397191398	0.115888308529771	0.3067100219723005	0	-0.169156101775574	0.1410571238740213	-0.6866130087278014	0.006687408343165319	0.1210747470110113	0.3031287973444013	0	0	0	0
0.3	0.110331275339323	0.1236366762897793	-23.89093686992798	0	0.95	0	0.05445342439657835	-0.2640226651392964	0.1725333965506052	-0.2683935126964836	0.119520570211303	0.3024927927945542	0	-0.1685170300523613	0.1402437516619858	-0.6867020325033418	0.006694239951816753	0.1241962580049877	0.3032558253974705	0	0	0	0
0.325	0.1061271937642345	0.130002787612825	-23.89192043753319	0	0.95	0	0.05091052378082278	-0.2672576801078556	0.1731057006872388	-0.26663525303248	0.12299140280406	0.2993617457368171	0	-0.1681100855016857	0.1374595953862903	-0.6884856027298033	0.006821806090985948	0.1273885715859776	0.3029936041192543	0	0	0	0
0.35	0.1061271937642345	0.130002787612825	-23.89192043753319	0	0.95	0	0.05091052378082278	-0.2672576801078556	0.1731057006872388	-0.26663525303248	0.12299140280406	0.2993617457368171	0	-0.1681100855016857	0.1374595953862903	-0.6884856027298033	0.006821806090985948	0.1273885715859776	0.3029936041192543	0	0	0	0
